<svg width="64" height="64" viewBox="0 0 64 64" fill="none" xmlns="http://www.w3.org/2000/svg">
  <rect x="2" y="2" width="60" height="60" rx="6" fill="#0F172A"/>
  <line x1="32" y1="6" x2="32" y2="58" stroke="#22C55E" stroke-width="1.5"/>
  <line x1="6" y1="32" x2="58" y2="32" stroke="#22C55E" stroke-width="1.5"/>
  <circle cx="32" cy="32" r="4" fill="#22C55E"/>
  <circle cx="32" cy="32" r="2" fill="#0F172A"/>
  <rect x="10" y="12" width="8" height="2" rx="1" fill="#22C55E" opacity="0.8"/>
  <rect x="10" y="16" width="14" height="2" rx="1" fill="#22C55E" opacity="0.5"/>
  <rect x="38" y="12" width="12" height="2" rx="1" fill="#A78BFA" opacity="0.8"/>
  <rect x="38" y="16" width="6" height="2" rx="1" fill="#A78BFA" opacity="0.5"/>
  <rect x="10" y="40" width="10" height="2" rx="1" fill="#F59E0B" opacity="0.8"/>
  <rect x="10" y="44" width="16" height="2" rx="1" fill="#F59E0B" opacity="0.5"/>
  <rect x="38" y="40" width="14" height="2" rx="1" fill="#EC4899" opacity="0.8"/>
  <rect x="38" y="44" width="8" height="2" rx="1" fill="#EC4899" opacity="0.5"/>
</svg>
